# xmcd
#
# Track frame offsets: 
#        150
#        13410
#        27487
#        43275
#        54667
#        67917
#        80555
#        96502
#
# Disc length: 1489 seconds
#
# Revision: 0
# Processed by: cddbd v1.5.2PL0 Copyright (c) Steve Scherf et al.
# Submitted via: ExactAudioCopy v0.99pb3
#
DISCID=7005cf08
DTITLE=Sammy Kershaw - Eight Top Ten Hits in a Row
DYEAR=1994
DGENRE=Country
TTITLE0=Cadillac Style
TTITLE1=Don't Go Near The Water
TTITLE2=Yard Sale
TTITLE3=Anywhere But Here
TTITLE4=She Don't Know She's Beautiful
TTITLE5=Haunted Heart
TTITLE6=Queen of My Double Wide Trailer
TTITLE7=I Can't Reach Her Anymore
EXTD=
EXTT0=
EXTT1=
EXTT2=
EXTT3=
EXTT4=
EXTT5=
EXTT6=
EXTT7=
PLAYORDER=
